PathFileType        4      (X/Y/Z)      C:\Users\pc\Desktop\IMUTRC\Sujet_02\Sujet_02_velo_80.trc         
DataRate	CameraRate	NumFrames	NumMarkers	Units	OrigDataRate	OrigDataStartFrame	OrigNumFrames
60.0	60.0	4	64	mm	60.0	473	945
Frame#	Time	pHipOrigin			pRightASI			pLeftASI			pRightCSI			pLeftCSI			pRightIschialTub			pLeftIschialTub			pSacrum			pL5SpinalProcess			pL3SpinalProcess			pT12SpinalProcess			pIJ			pT4SpinalProcess			pT8SpinalProcess			pPX			pC7SpinalProcess			pTopOfHead			pRightAuricularis			pLeftAuricularis			pBackOfHead			pRightAcromion			pLeftAcromion			pRightArmLatEpicondyle			pRightArmMedEpicondyle			pLeftArmLatEpicondyle			pLeftArmMedEpicondyle			pRightUlnarStyloid			pRightRadialStyloid			pRightOlecranon			pLeftUlnarStyloid			pLeftRadialStyloid			pLeftOlecranon			pRightTopOfHand			pRightPinky			pRightBallHand			pLeftTopOfHand			pLeftPinky			pLeftBallHand			pRightGreaterTrochanter			pRightKneeLatEpicondyle			pRightKneeMedEpicondyle			pRightPatella			pLeftGreaterTrochanter			pLeftKneeLatEpicondyle			pLeftKneeMedEpicondyle			pLeftPatella			pRightTibialTub			pRightLatMalleolus			pRightMedMalleolus			pLeftTibialTub			pLeftLatMalleolus			pLeftMedMalleolus			pRightHeelFoot			pRightFirstMetatarsal			pRightFifthMetatarsal			pRightPivotFoot			pRightHeelCenter			pRightToe			pLeftHeelFoot			pLeftFirstMetatarsal			pLeftFifthMetatarsal			pLeftPivotFoot			pLeftHeelCenter			pLeftToe			
		X1	Y1	Z1	X2	Y2	Z2	X3	Y3	Z3	X4	Y4	Z4	X5	Y5	Z5	X6	Y6	Z6	X7	Y7	Z7	X8	Y8	Z8	X9	Y9	Z9	X10	Y10	Z10	X11	Y11	Z11	X12	Y12	Z12	X13	Y13	Z13	X14	Y14	Z14	X15	Y15	Z15	X16	Y16	Z16	X17	Y17	Z17	X18	Y18	Z18	X19	Y19	Z19	X20	Y20	Z20	X21	Y21	Z21	X22	Y22	Z22	X23	Y23	Z23	X24	Y24	Z24	X25	Y25	Z25	X26	Y26	Z26	X27	Y27	Z27	X28	Y28	Z28	X29	Y29	Z29	X30	Y30	Z30	X31	Y31	Z31	X32	Y32	Z32	X33	Y33	Z33	X34	Y34	Z34	X35	Y35	Z35	X36	Y36	Z36	X37	Y37	Z37	X38	Y38	Z38	X39	Y39	Z39	X40	Y40	Z40	X41	Y41	Z41	X42	Y42	Z42	X43	Y43	Z43	X44	Y44	Z44	X45	Y45	Z45	X46	Y46	Z46	X47	Y47	Z47	X48	Y48	Z48	X49	Y49	Z49	X50	Y50	Z50	X51	Y51	Z51	X52	Y52	Z52	X53	Y53	Z53	X54	Y54	Z54	X55	Y55	Z55	X56	Y56	Z56	X57	Y57	Z57	X58	Y58	Z58	X59	Y59	Z59	X60	Y60	Z60	X61	Y61	Z61	X62	Y62	Z62	X63	Y63	Z63	X64	Y64	Z64	
473	7.867	0.0	1250.02096	7.654170837655508E-14	59.51404000000001	1365.99704	141.6355100000001	42.219359999999995	1367.01437	-146.8917299999999	-1.3564499999999926	1427.48923	119.36720000000008	-15.486090000000008	1428.28049	-117.10644999999991	-43.80187999999999	1179.71187	61.71827000000007	-50.8667	1180.1075	-56.51855999999993	-73.81324	1259.34652	4.464970000000082	-50.58411	1376.00082	4.295410000000087	-2.0346699999999998	1488.07712	9.269040000000091	54.03174	1585.00645	15.938230000000095	318.19948	1608.80077	10.964600000000079	205.89711	1718.89892	28.711430000000092	127.78846	1666.90184	23.342160000000096	214.48793	1533.40501	2.9389700000000802	259.4767	1749.3059	32.83728000000009	498.60672	1757.27502	40.35425000000008	410.55081	1724.43774	95.40333000000007	415.12881	1757.44457	-29.615719999999918	402.75125	1789.208	45.27137000000008	227.88283	1696.29149	228.61757000000011	246.87306	1736.87182	-173.5119699999999	283.89272	1413.92478	305.0871800000001	246.70351000000002	1388.15231	258.74196000000006	330.97268	1450.43576	-185.15479999999994	291.12709	1432.12375	-137.45312999999993	385.56961	1150.03963	355.2756600000001	423.26748	1162.92586	312.37807000000004	244.44277000000002	1402.39499	303.5611800000001	453.10928	1199.83248	-229.29578999999995	491.20279	1218.59664	-188.99805999999995	289.43154	1439.18857	-182.15930999999995	568.63322	1066.73127	317.97341	487.69864	1081.36958	356.85818	424.62393	1122.28901	340.01565000000005	642.84208	1162.98238	-144.80054999999993	572.19389	1153.71333	-201.31910999999997	500.01969	1180.39009	-204.76673999999994	17.35120000000001	1223.85286	176.95961000000008	254.50307	843.53948	164.41249000000002	262.64174	843.53948	78.16517000000005	298.07888	871.85528	122.13660000000004	32.441649999999996	1235.10006	-172.77722999999992	457.00906	1107.3116	-106.02881999999995	452.48758	1113.75471	-19.781499999999962	465.6564	1157.89571	-62.961669999999955	306.72622	796.00738	125.69727000000003	129.25794	402.46865	104.16370000000002	143.89625	405.52066	37.358770000000014	489.78983	1061.0229	-64.60070999999996	251.05544	709.98613	-146.04394999999997	247.66432	703.2039	-77.99560999999997	59.28797	308.93044	31.706910000000015	232.23476	242.91676	49.17115	199.62355	235.90846	130.50135000000003	238.05617	229.97401	96.59022	96.42066	291.46621	45.101810000000015	311.41726	198.88881	123.38001	138.01832	644.4246	-95.79895999999997	276.71486	520.59244	-96.42065999999998	258.40285	530.87882	-181.76368	285.70131	509.23221	-143.78321	168.36879	615.37406	-105.80273999999997	346.79787	454.91788	-163.45167	
474	7.883	0.0	1250.02096	7.654170837655508E-14	59.62708000000001	1366.16659	141.40943000000007	42.38891999999999	1366.67526	-147.1178099999999	-1.1303699999999928	1427.7153	119.02808000000009	-15.260010000000007	1428.05442	-117.44555999999992	-43.858399999999996	1179.88143	61.83130000000007	-50.92322	1180.05098	-56.40551999999993	-73.81324	1259.45956	4.408450000000082	-50.41455	1376.05734	4.069340000000087	-1.5259999999999996	1488.07712	9.042970000000091	54.823	1584.8369	15.768680000000094	319.10378	1607.55736	11.021120000000078	207.25355	1718.05114	28.82446000000009	128.86231	1666.44969	23.285650000000096	215.05311	1532.61375	2.71289000000008	260.88967	1748.23205	33.00684000000009	500.01969	1755.74902	40.63684000000008	411.90725	1723.13781	95.68592000000007	416.54178	1755.97509	-29.33312999999992	404.16421	1787.79504	45.49744000000008	228.56105	1694.87853	228.5610500000001	248.00343	1735.911	-173.5684899999999	285.13613	1413.077	305.2002200000001	247.89040000000003	1387.1915	258.91152000000005	331.99001	1449.58799	-184.70264999999995	292.25747	1431.38901	-136.88794999999993	387.09561	1149.41792	355.89736000000005	424.79349	1162.36067	312.99978000000004	245.62965000000003	1401.49069	303.67421000000013	454.57877	1199.21077	-228.61756999999994	492.67227	1218.14449	-188.37635999999995	290.50539	1438.28427	-181.65064999999996	570.32877	1066.39216	318.59511	489.33768	1080.91743	357.47988	426.26297	1121.72383	340.69387000000006	644.31157	1162.07808	-144.29187999999994	573.60685	1152.97859	-200.81043999999997	501.48917	1179.82491	-204.20154999999994	17.97290000000001	1225.20931	177.24220000000008	263.31996	849.9826	168.36879000000002	271.40212	849.30438	82.12147000000004	306.21755	878.80706	125.75379000000004	32.15905999999999	1233.74361	-172.7207099999999	455.48306	1102.11189	-105.80273999999996	451.24417	1109.40278	-19.61193999999996	464.75211	1152.97859	-63.18774999999996	312.88674	800.18975	128.91883000000004	116.6543	416.25918	98.62488000000002	131.8578	419.81985	31.989500000000017	491.14627	1057.74482	-64.60070999999996	268.57619	695.79997	-144.00929	265.97634	688.96123	-75.96093999999997	42.89759	326.84682	24.924680000000016	212.84889	253.25966	41.4281	179.95509	246.59047	122.64527	218.10512	239.41261	88.67762	79.23902	307.68703	38.093510000000016	290.05324	204.82326	114.95875	159.04322	625.09526	-93.02954999999997	303.44814	507.93228	-93.19909999999999	284.51442	516.74918	-178.54213	312.88674	496.68509	-140.44862	190.69362	597.40116	-102.92028999999997	376.47012	445.2532	-159.891	
475	7.9	0.0	1250.02096	7.654170837655508E-14	59.85315000000001	1366.44919	141.0703200000001	42.50195999999999	1366.22311	-147.4569199999999	-0.7912599999999927	1427.9979	118.57594000000009	-15.033940000000007	1427.82834	-117.89770999999992	-43.971439999999994	1180.1075	62.05738000000007	-51.03626	1179.99446	-56.17944999999993	-73.81324	1259.57259	4.408450000000082	-50.18848	1376.17038	3.7867400000000875	-1.1303699999999997	1488.07712	8.703860000000091	55.50122	1584.72386	15.542600000000094	319.782	1606.70958	11.077640000000079	208.21437	1717.54247	28.99402000000009	129.76661	1666.11058	23.229130000000097	215.6183	1532.10508	2.5433400000000805	261.96352	1747.55383	33.289430000000095	501.03702	1754.67516	41.08899000000008	412.86807	1722.17699	96.13807000000007	417.67215	1754.90124	-28.93749999999992	405.23806	1786.83422	45.83655000000009	229.12624	1693.80468	228.61757000000011	249.07729	1735.34582	-173.5684899999999	286.32302	1412.51181	305.2002200000001	249.07729000000003	1386.45676	258.96803000000006	333.23342	1449.19236	-184.36353999999994	293.50087	1431.0499	-136.49231999999995	388.56509	1149.02229	356.29299000000003	426.376	1161.96504	313.45192000000003	246.76003000000003	1400.81247	303.67421000000013	456.04825	1198.9847	-228.33497999999994	494.14176	1217.97493	-188.09375999999995	291.7488	1437.88864	-181.25501999999994	571.96781	1066.27912	318.99074	490.97672	1080.63484	357.93203	427.78897	1121.3282	341.08950000000004	645.72453	1161.56941	-144.12231999999995	574.96329	1152.58296	-200.58435999999998	502.90213	1179.54231	-203.91895999999994	18.82068000000001	1226.96138	177.52479000000008	273.7759	858.12127	173.22938000000002	281.6885	856.48223	87.03858000000004	315.8257	887.4544	130.16224000000003	31.48083999999999	1231.93502	-172.7207099999999	452.48758	1092.72981	-106.36792999999996	448.75735	1100.98152	-20.233639999999962	462.94351	1143.82259	-64.31811999999995	320.51674	806.18072	132.81861000000004	106.31141	432.70608	93.99036000000002	122.08009	436.88846	27.52454000000002	490.80716	1050.45393	-65.33544999999995	284.11879	678.67485	-141.97462	282.3102	671.94914	-73.86975999999997	28.88098	347.70217	19.21631000000002	195.38466	266.42848	34.53284	162.26478	260.09841	115.69349	200.01918	251.73366	81.6128	64.37464	326.73379	32.04602000000001	270.4413	213.64015	107.32874	178.20301	602.93998	-90.48620999999997	327.92068	492.67227	-90.20361999999999	308.53481	500.18924	-175.60316	337.81142	481.65115	-137.45313	211.09682	576.71537	-100.26391999999998	403.76858	433.10171	-156.66944	
476	7.917	0.0	1250.02096	7.654170837655508E-14	60.192260000000005	1366.84482	140.61817000000008	42.55846999999999	1365.60141	-147.90906999999993	-0.39562999999999277	1428.39353	117.95423000000008	-14.864380000000008	1427.43271	-118.51941999999991	-44.02795999999999	1180.39009	62.33997000000007	-51.20581	1179.88143	-55.89684999999993	-73.75672	1259.68563	4.464970000000082	-49.96241	1376.2269	3.3911100000000873	-0.8477799999999994	1488.07712	8.25171000000009	55.84034	1584.66734	15.146970000000094	320.17763	1606.65306	11.247190000000078	208.55348	1717.42943	29.107060000000093	130.10572	1665.99755	23.059570000000097	215.95741	1532.04856	2.3172600000000805	262.30263	1747.44079	33.572020000000094	501.43265	1754.33605	41.71070000000008	413.09414	1722.00744	96.64673000000008	418.06778	1754.61865	-28.42882999999992	405.63369	1786.66467	46.34522000000008	229.35231	1693.46557	228.61757000000011	249.86855	1735.51537	-173.5119699999999	287.28383	1412.39877	304.9741400000001	250.09462000000002	1386.2872	258.79848000000004	334.47683	1449.47495	-184.08093999999994	294.63125	1431.21945	-136.37927999999994	389.86502	1149.13533	356.40603000000004	427.67593	1162.07808	313.6214800000001	247.77736000000002	1400.64291	303.44814000000014	457.23514	1199.32381	-228.44800999999995	495.32865	1218.25753	-188.20679999999993	292.87917	1438.11472	-181.08545999999996	573.32426	1066.56172	319.04726	492.38968	1080.80439	357.98855	429.14541	1121.44124	341.20254000000006	646.8549	1161.62593	-144.34839999999994	576.09367	1152.75252	-200.81043999999997	504.0325	1179.82491	-204.08850999999996	20.06409000000001	1229.39168	177.9204200000001	285.41872	867.9555	179.27687000000003	292.93569	864.84698	93.02955000000004	326.39467	897.62774	135.41847000000004	30.293949999999988	1229.50472	-172.77722999999992	447.51395	1078.76972	-107.66784999999996	444.68802	1088.15181	-21.64660999999996	459.83499	1130.03206	-66.40930999999996	329.16408	813.86724	137.62269000000003	98.00318	451.6398	90.54273000000003	114.28053	456.33084	24.24646000000002	488.60294	1038.52851	-66.74841999999997	297.11806	657.93254	-139.65736	296.10073	651.60246	-71.49597999999997	16.89905	371.60952	14.807860000000021	179.50294	282.53627	28.880980000000008	146.15699	276.65834	109.98511	183.51576	266.99367	75.73487	51.37537	348.83254	27.35498000000002	252.01625	225.39601	100.88563	195.04555	577.67619	-87.94287999999999	349.79336	474.4733	-87.37769	330.06838	480.85989	-172.83375	360.19277	463.84781	-134.57069	229.12624	552.97758	-97.66406999999998	428.29764	418.40689	-153.73048	
